<svg width="24" height="24" viewBox="0 0 24 24" fill="none" xmlns="http://www.w3.org/2000/svg">
<g clip-path="url(#clip0_1_1816)">
<path d="M12 23.7188C18.4721 23.7188 23.7188 18.4721 23.7188 12C23.7188 5.52791 18.4721 0.28125 12 0.28125C5.52791 0.28125 0.28125 5.52791 0.28125 12C0.28125 18.4721 5.52791 23.7188 12 23.7188Z" fill="#1877F2"/>
<path opacity="0.49" d="M22.6729 16.8455C22.7017 16.7294 22.7498 16.619 22.8152 16.5189C23.4135 15.0876 23.7206 13.5513 23.7188 12C23.7188 11.9161 23.7174 11.8326 23.7156 11.7492L16.1255 4.15913C15.4009 4.08226 14.6727 4.04503 13.944 4.04761C11.7852 4.04761 10.3078 5.3648 10.3078 7.78491V9.87183H7.87451V12.7078L10.3078 15.1406V19.9523L13.9172 23.5617C15.8155 23.246 17.607 22.4683 19.1339 21.2971C20.6608 20.1259 21.8761 18.5971 22.6729 16.8455Z" fill="url(#paint0_linear_1_1816)"/>
<path d="M13.2349 19.9523V12.7078H15.6771L16.043 9.87183H13.2349V8.06578C13.2349 7.24664 13.4623 6.6885 14.6369 6.6885H16.1255V4.15908C15.4009 4.08225 14.6726 4.04504 13.944 4.04761C11.7852 4.04761 10.3077 5.3648 10.3077 7.78491V9.87183H7.87451V12.7078H10.3078V19.9523H13.2349Z" fill="white"/>
</g>
<defs>
<linearGradient id="paint0_linear_1_1816" x1="8.74296" y1="7.58203" x2="26.5491" y2="25.3882" gradientUnits="userSpaceOnUse">
<stop stop-color="#1D1D1B"/>
<stop offset="0.369" stop-color="#1D1D1B" stop-opacity="0.856"/>
<stop offset="0.75" stop-color="#1D1D1B" stop-opacity="0.429"/>
<stop offset="1" stop-color="#1D1D1B" stop-opacity="0"/>
</linearGradient>
<clipPath id="clip0_1_1816">
<rect width="24" height="24" fill="white"/>
</clipPath>
</defs>
</svg>
