<svg width="17" height="17" viewBox="0 0 17 17" fill="none" xmlns="http://www.w3.org/2000/svg">
<path d="M12.75 6.90625C12.4578 6.90625 12.2188 7.14531 12.2188 7.4375V13.5469C12.2188 13.9852 11.8602 14.3438 11.4219 14.3438H3.45312C3.01484 14.3438 2.65625 13.9852 2.65625 13.5469V5.57812C2.65625 5.13984 3.01484 4.78125 3.45312 4.78125H9.01465C9.30684 4.78125 9.5459 4.54219 9.5459 4.25C9.5459 3.95781 9.30684 3.71875 9.01465 3.71875H3.45312C2.42715 3.71875 1.59375 4.55215 1.59375 5.57812V13.5469C1.59375 14.5729 2.42715 15.4062 3.45312 15.4062H11.4219C12.4479 15.4062 13.2812 14.5729 13.2812 13.5469V7.4375C13.2812 7.14531 13.0422 6.90625 12.75 6.90625Z" fill="white"/>
<path d="M14.875 1.59375H11.1563C10.8641 1.59375 10.625 1.83281 10.625 2.125C10.625 2.41719 10.8641 2.65625 11.1563 2.65625H13.5934L7.06235 9.1873C6.85649 9.39316 6.85649 9.73184 7.06235 9.93769C7.16528 10.0406 7.30142 10.0938 7.43755 10.0938C7.57368 10.0938 7.70981 10.0406 7.81274 9.93769L14.3438 3.40664V5.84375C14.3438 6.13594 14.5829 6.375 14.875 6.375C15.1672 6.375 15.4063 6.13594 15.4063 5.84375V2.125C15.4063 1.83281 15.1672 1.59375 14.875 1.59375Z" fill="white"/>
</svg>
