<svg width="34" height="34" viewBox="0 0 34 34" fill="none" xmlns="http://www.w3.org/2000/svg">
<path d="M16.875 33.75C26.1948 33.75 33.75 26.1948 33.75 16.875C33.75 7.55519 26.1948 0 16.875 0C7.55519 0 0 7.55519 0 16.875C0 26.1948 7.55519 33.75 16.875 33.75Z" fill="#070707"/>
<path d="M16.875 31.9922C25.224 31.9922 31.9922 25.224 31.9922 16.875C31.9922 8.52601 25.224 1.75781 16.875 1.75781C8.52601 1.75781 1.75781 8.52601 1.75781 16.875C1.75781 25.224 8.52601 31.9922 16.875 31.9922Z" fill="white"/>
<path d="M8.48162 27.2635H25.2687C26.3146 26.4173 27.2304 25.4166 27.9808 24.2957H5.76953C6.51991 25.4166 7.43566 26.4173 8.48162 27.2635Z" fill="#D6062F"/>
<path d="M19.1008 15.3922H30.1477C30.0339 14.3631 29.8032 13.3693 29.4692 12.4243H19.1008V15.3922Z" fill="#D6062F"/>
<path d="M19.1008 9.45654H27.9806C27.2302 8.33562 26.3145 7.33493 25.2685 6.48872H19.1008V9.45654Z" fill="#D6062F"/>
<path d="M4.28081 21.3278H29.4693C29.8033 20.3828 30.034 19.3891 30.1478 18.36H3.60229C3.71613 19.3891 3.94676 20.3828 4.28081 21.3278Z" fill="#D6062F"/>
<path d="M8.48145 27.2635C13.306 31.1669 20.3115 31.274 25.2685 27.2635H8.48145Z" fill="white"/>
<path d="M5.76942 24.2957H27.9806C28.5936 23.3802 29.0958 22.3845 29.4692 21.3279H4.28076C4.65426 22.3845 5.1565 23.3801 5.76942 24.2957Z" fill="white"/>
<path d="M3.51978 16.8761V18.3601H3.60225C3.54839 17.8727 3.51978 17.3778 3.51978 16.8761Z" fill="white"/>
<path d="M3.51978 15.3922V16.8761C3.51978 16.3744 3.54839 15.8795 3.60225 15.3922H3.51978Z" fill="white"/>
<path d="M30.1477 18.36C30.2544 17.3952 30.2609 16.4161 30.1477 15.3922C28.773 15.3922 4.59245 15.3922 3.60224 15.3922C3.49558 16.3569 3.48904 17.3361 3.60224 18.36H30.1477Z" fill="white"/>
<path d="M19.1008 12.4244H29.4692C29.0957 11.3678 28.5934 10.3721 27.9806 9.45654H19.1008V12.4244Z" fill="white"/>
<path d="M25.2685 6.48871C23.5219 5.07564 21.4122 4.09443 19.1008 3.70659V6.48871H25.2685Z" fill="white"/>
<path d="M3.60229 15.3922H19.1009C19.1009 14.1235 19.1009 4.81711 19.1009 3.70652C11.4974 2.43078 4.44021 7.81397 3.60229 15.3922Z" fill="#070707"/>
<path d="M12.4205 6.11431L13.0373 5.6662L13.654 6.11431L13.4184 5.38924L14.0352 4.94114H13.2728L13.0373 4.21608L12.8016 4.94114H12.0393L12.6561 5.38924L12.4205 6.11431Z" fill="white"/>
<path d="M15.8743 6.11431L16.4911 5.6662L17.1078 6.11431L16.8723 5.38924L17.489 4.94114H16.7267L16.4911 4.21608L16.2555 4.94114H15.4932L16.1099 5.38924L15.8743 6.11431Z" fill="white"/>
<path d="M8.96661 8.97518L9.5834 8.52708L10.2001 8.97518L9.96456 8.25012L10.5813 7.80202H9.81894L9.5834 7.07703L9.34778 7.80202H8.58545L9.20223 8.25012L8.96661 8.97518Z" fill="white"/>
<path d="M12.4205 8.97518L13.0373 8.52708L13.654 8.97518L13.4184 8.25012L14.0352 7.80202H13.2728L13.0373 7.07703L12.8016 7.80202H12.0393L12.6561 8.25012L12.4205 8.97518Z" fill="white"/>
<path d="M15.8743 8.97518L16.4911 8.52708L17.1078 8.97518L16.8723 8.25012L17.489 7.80202H16.7267L16.4911 7.07703L16.2555 7.80202H15.4932L16.1099 8.25012L15.8743 8.97518Z" fill="white"/>
<path d="M6.12954 9.9379L5.89399 10.6629H5.13159L5.74837 11.111L5.51276 11.8361L6.12954 11.388L6.74632 11.8361L6.5107 11.111L7.12748 10.6629H6.36508L6.12954 9.9379Z" fill="white"/>
<path d="M8.96661 11.8361L9.5834 11.388L10.2001 11.8361L9.96456 11.111L10.5813 10.6629H9.81894L9.5834 9.9379L9.34778 10.6629H8.58545L9.20223 11.111L8.96661 11.8361Z" fill="white"/>
<path d="M12.4205 11.8361L13.0373 11.388L13.654 11.8361L13.4184 11.111L14.0352 10.6629H13.2728L13.0373 9.9379L12.8016 10.6629H12.0393L12.6561 11.111L12.4205 11.8361Z" fill="white"/>
<path d="M15.8743 11.8361L16.4911 11.388L17.1078 11.8361L16.8723 11.111L17.489 10.6629H16.7267L16.4911 9.9379L16.2555 10.6629H15.4932L16.1099 11.111L15.8743 11.8361Z" fill="white"/>
<path d="M6.36508 13.5238L6.12954 12.7988L5.89399 13.5238H5.13159L5.74837 13.9719L5.51276 14.6969L6.12954 14.2488L6.74632 14.6969L6.5107 13.9719L7.12748 13.5238H6.36508Z" fill="white"/>
<path d="M8.96661 14.6969L9.5834 14.2488L10.2001 14.6969L9.96456 13.9719L10.5813 13.5238H9.81894L9.5834 12.7988L9.34778 13.5238H8.58545L9.20223 13.9719L8.96661 14.6969Z" fill="white"/>
<path d="M12.4205 14.6969L13.0373 14.2488L13.654 14.6969L13.4184 13.9719L14.0352 13.5238H13.2728L13.0373 12.7988L12.8016 13.5238H12.0393L12.6561 13.9719L12.4205 14.6969Z" fill="white"/>
<path d="M15.8743 14.6969L16.4911 14.2488L17.1078 14.6969L16.8723 13.9719L17.489 13.5238H16.7267L16.4911 12.7988L16.2555 13.5238H15.4932L16.1099 13.9719L15.8743 14.6969Z" fill="white"/>
</svg>
