<svg width="24" height="24" viewBox="0 0 24 24" fill="none" xmlns="http://www.w3.org/2000/svg">
<path d="M15.3368 3.89599C16.1197 2.88612 16.713 1.45776 16.4983 0C15.2185 0.0889584 13.724 0.907375 12.8514 1.9741C12.0558 2.94104 11.4022 4.3783 11.6578 5.77456C13.0564 5.81826 14.4998 4.98012 15.3368 3.89599Z" fill="black"/>
<path d="M21.5549 8.0519C20.3269 6.51099 18.5999 5.61792 16.9693 5.61792C14.8172 5.61792 13.9064 6.64829 12.4119 6.64829C10.8698 6.64829 9.69865 5.62101 7.8371 5.62101C6.00803 5.62101 4.06062 6.7388 2.82642 8.64947C1.09134 11.341 1.38723 16.3993 4.20102 20.7087C5.20702 22.2512 6.55029 23.984 8.30819 23.9998C9.87269 24.0153 10.314 22.9965 12.4339 22.9849C14.5531 22.9725 14.9557 24.013 16.5171 23.9952C18.2762 23.9812 19.6941 22.0605 20.6997 20.5181C21.4207 19.4134 21.6898 18.8561 22.2495 17.6083C18.1791 16.0601 17.5266 10.2732 21.5549 8.0519Z" fill="#1B546B"/>
<path d="M19.0861 11.027C16.0097 13.5178 11.6604 15.0742 6.83302 15.0742C5.10336 15.0742 3.43481 14.8738 1.8645 14.5033C2.13022 16.5246 2.88752 18.6967 4.2014 20.7084C5.2074 22.2508 6.55067 23.9836 8.30857 23.9994C9.87308 24.0149 10.3144 22.9961 12.4343 22.9845C14.5534 22.9722 14.9561 24.0126 16.5175 23.9948C18.2765 23.9809 19.6945 22.0601 20.7001 20.5177C21.421 19.413 21.6902 18.8557 22.2499 17.608C19.4821 16.5559 18.297 13.5457 19.0861 11.027Z" fill="black"/>
</svg>
