<svg width="29" height="34" viewBox="0 0 29 34" fill="none" xmlns="http://www.w3.org/2000/svg">
<path d="M24.0072 16.8884C23.8883 16.7669 23.7464 16.6702 23.5898 16.6041C23.4331 16.5379 23.2649 16.5036 23.0949 16.5032C22.9248 16.5027 22.7564 16.5361 22.5994 16.6014C22.4424 16.6667 22.3 16.7626 22.1804 16.8835C22.0608 17.0043 21.9665 17.1478 21.903 17.3055C21.8394 17.4632 21.8079 17.632 21.8102 17.802C21.8126 17.9721 21.8487 18.1399 21.9166 18.2958C21.9845 18.4517 22.0827 18.5926 22.2055 18.7101C23.2926 19.7798 24.155 21.0557 24.7422 22.4632C25.3294 23.8707 25.6296 25.3812 25.6251 26.9063C25.6251 28.4734 21.1331 30.75 14.0938 30.75C7.0545 30.75 2.56256 28.4722 2.56256 26.9037C2.55825 25.3891 2.85439 23.8888 3.43386 22.4894C4.01332 21.0901 4.8646 19.8196 5.9384 18.7515C6.05985 18.6331 6.15658 18.4917 6.22298 18.3356C6.28938 18.1796 6.32412 18.0118 6.3252 17.8422C6.32627 17.6726 6.29365 17.5045 6.22924 17.3475C6.16482 17.1906 6.06989 17.0481 5.94995 16.9281C5.83001 16.8082 5.68745 16.7133 5.53053 16.6488C5.37362 16.5844 5.20547 16.5518 5.03585 16.5529C4.86623 16.554 4.69852 16.5887 4.54243 16.6551C4.38634 16.7215 4.24499 16.8182 4.12658 16.9397C2.81384 18.2455 1.77318 19.7988 1.06486 21.5096C0.356536 23.2204 -0.00538236 25.0547 6.04899e-05 26.9063C6.04899e-05 31.0673 7.2609 33.3125 14.0938 33.3125C20.9267 33.3125 28.1876 31.0673 28.1876 26.9063C28.1933 25.0422 27.8264 23.1957 27.1085 21.4754C26.3906 19.7551 25.3362 18.1956 24.0072 16.8884Z" fill="url(#paint0_linear_1_1743)"/>
<path d="M14.0937 17.9375C15.8676 17.9375 17.6016 17.4115 19.0765 16.426C20.5514 15.4405 21.701 14.0398 22.3798 12.4009C23.0586 10.7621 23.2362 8.95881 22.8902 7.21904C22.5441 5.47927 21.6899 3.88119 20.4356 2.62689C19.1813 1.37259 17.5832 0.518397 15.8435 0.172336C14.1037 -0.173725 12.3004 0.00388601 10.6616 0.682709C9.02273 1.36153 7.622 2.51108 6.63651 3.98598C5.65101 5.46089 5.125 7.1949 5.125 8.96875C5.12775 11.3466 6.07355 13.6262 7.75492 15.3076C9.43629 16.989 11.7159 17.9348 14.0937 17.9375ZM14.0937 2.5625C15.3608 2.5625 16.5994 2.93822 17.6529 3.64215C18.7064 4.34608 19.5275 5.3466 20.0124 6.51719C20.4972 7.68778 20.6241 8.97586 20.3769 10.2186C20.1297 11.4612 19.5196 12.6027 18.6237 13.4987C17.7277 14.3946 16.5862 15.0047 15.3435 15.2519C14.1009 15.4991 12.8128 15.3722 11.6422 14.8874C10.4716 14.4025 9.47108 13.5814 8.76715 12.5279C8.06322 11.4744 7.6875 10.2358 7.6875 8.96875C7.6895 7.27032 8.36508 5.64203 9.56606 4.44106C10.767 3.24009 12.3953 2.5645 14.0937 2.5625Z" fill="url(#paint1_linear_1_1743)"/>
<defs>
<linearGradient id="paint0_linear_1_1743" x1="14.0938" y1="16.5032" x2="14.0938" y2="33.3125" gradientUnits="userSpaceOnUse">
<stop stop-color="#D97904"/>
<stop offset="0.484375" stop-color="#7A4300"/>
<stop offset="1"/>
</linearGradient>
<linearGradient id="paint1_linear_1_1743" x1="14.0938" y1="0" x2="14.0938" y2="17.9375" gradientUnits="userSpaceOnUse">
<stop stop-color="#D97904"/>
<stop offset="0.484375" stop-color="#7A4300"/>
<stop offset="1"/>
</linearGradient>
</defs>
</svg>
