<svg width="31" height="31" viewBox="0 0 31 31" fill="none" xmlns="http://www.w3.org/2000/svg">
<g clip-path="url(#clip0_1_1708)">
<path d="M30.6216 28.7951L22.9117 21.0852C25.0127 18.5155 26.0457 15.2366 25.7971 11.9267C25.5484 8.61674 24.037 5.52901 21.5756 3.30217C19.1141 1.07532 15.8909 -0.120271 12.5727 -0.0373051C9.25448 0.045661 6.09508 1.40084 3.748 3.74791C1.40093 6.09498 0.0457526 9.25439 -0.0372135 12.5726C-0.12018 15.8908 1.07541 19.114 3.30226 21.5755C5.5291 24.0369 8.61683 25.5483 11.9268 25.797C15.2367 26.0457 18.5156 25.0126 21.0853 22.9116L28.7952 30.6215C29.0388 30.8568 29.3651 30.987 29.7038 30.9841C30.0424 30.9811 30.3664 30.8453 30.6059 30.6058C30.8454 30.3663 30.9812 30.0424 30.9842 29.7037C30.9871 29.365 30.8569 29.0387 30.6216 28.7951ZM12.9168 23.25C10.873 23.25 8.87517 22.644 7.17586 21.5085C5.47655 20.3731 4.1521 18.7592 3.37 16.8711C2.58789 14.9829 2.38326 12.9052 2.78197 10.9007C3.18068 8.89626 4.16484 7.05503 5.60998 5.60989C7.05512 4.16475 8.89635 3.18059 10.9008 2.78188C12.9053 2.38316 14.983 2.5878 16.8711 3.3699C18.7593 4.15201 20.3732 5.47646 21.5086 7.17577C22.644 8.87508 23.2501 10.8729 23.2501 12.9167C23.247 15.6563 22.1573 18.2828 20.2201 20.22C18.2829 22.1572 15.6564 23.2469 12.9168 23.25Z" fill="url(#paint0_linear_1_1708)"/>
</g>
<defs>
<linearGradient id="paint0_linear_1_1708" x1="15.4715" y1="-0.0413513" x2="15.4715" y2="30.9841" gradientUnits="userSpaceOnUse">
<stop stop-color="#D97904"/>
<stop offset="0.484375" stop-color="#7A4300"/>
<stop offset="1"/>
</linearGradient>
<clipPath id="clip0_1_1708">
<rect width="31" height="31" fill="white"/>
</clipPath>
</defs>
</svg>
