<svg width="23" height="23" viewBox="0 0 23 23" fill="none" xmlns="http://www.w3.org/2000/svg">
<g clip-path="url(#clip0_1_1796)">
<path d="M11.7598 0C8.27168 0 5.16177 1.52986 3.05479 3.95529C2.41273 4.69513 1.86256 5.51689 1.42493 6.4058L5.29977 9.36553C5.74884 8.00282 6.61599 6.83347 7.74992 6.00618C8.87278 5.18811 10.2573 4.70472 11.7594 4.70472C13.3823 4.70472 14.848 5.27999 15.9996 6.22093L19.3497 2.8756C17.3088 1.09777 14.6915 0 11.7598 0Z" fill="#FF7976"/>
<path d="M1.42529 6.40543L5.30014 9.36516C5.74921 8.00245 6.61635 6.8331 7.75028 6.00581C8.87314 5.18774 10.2576 4.70435 11.7598 4.70435C13.3827 4.70435 14.8483 5.27962 16 6.22056L19.3501 2.87523C17.3084 1.09814 14.6915 0 11.7598 0" fill="#E3443A"/>
<path d="M4.95514 11.4998C4.95514 11.3939 4.96289 11.2895 4.96768 11.1847C4.99794 10.5515 5.11049 9.94113 5.30015 9.36513L1.42531 6.4054C0.712771 7.85076 0.299493 9.46918 0.252999 11.1847C0.250047 11.2898 0.243774 11.3942 0.243774 11.4998C0.243774 11.6057 0.250047 11.7105 0.25263 11.8156C0.299124 13.5289 0.712402 15.1466 1.42309 16.5905L5.29683 13.6252C5.10901 13.0522 4.9972 12.4444 4.96768 11.8153C4.96289 11.7105 4.95514 11.6061 4.95514 11.4998Z" fill="#F4D72C"/>
<path d="M1.42346 16.5905L5.2972 13.6252C5.10938 13.0522 4.99757 12.4444 4.96805 11.8153C4.96326 11.7101 4.95551 11.6057 4.95551 11.4994C4.95551 11.3935 4.96326 11.2891 4.96805 11.1843C4.99831 10.5511 5.11086 9.94076 5.30052 9.36476L1.42531 6.4054" fill="#F7B92B"/>
<path d="M15.5845 17.2898C14.5465 17.9437 13.2391 18.2953 11.7598 18.2953C10.8941 18.2953 10.0694 18.1308 9.3093 17.8381C8.74953 17.6226 8.22703 17.3345 7.74992 16.9876C6.61636 16.1622 5.74884 14.9965 5.29977 13.6349L1.42493 16.5942C1.86182 17.4817 2.41089 18.3023 3.05184 19.0411C5.15882 21.4691 8.27094 23.0001 11.7598 23.0001C12.8151 23.0001 13.8524 22.8591 14.8428 22.5846C16.4893 22.1277 18.0066 21.3008 19.263 20.134L15.5845 17.2898Z" fill="#59C96E"/>
<path d="M1.42529 16.5942C1.86219 17.4817 2.41125 18.3023 3.0522 19.0411C5.15918 21.4691 8.27131 23 11.7602 23C12.8155 23 13.8528 22.8591 14.8432 22.5845C16.4896 22.1277 18.0069 21.3008 19.2634 20.134L15.5845 17.2902C14.5465 17.944 13.2391 18.2957 11.7598 18.2957C10.8941 18.2957 10.0694 18.1311 9.3093 17.8385C8.74953 17.623 8.22703 17.3348 7.74992 16.988" fill="#40A557"/>
<path d="M22.491 9.28589H21.8006H11.8672V11.1848V11.8157V13.7139H17.9368C17.628 15.1899 16.7874 16.5315 15.5845 17.2898L19.2634 20.1337C20.2722 19.1972 21.1102 18.0219 21.7132 16.6625C22.3744 15.1732 22.7526 13.3895 22.7526 11.4294C22.7526 10.7504 22.6482 10.0239 22.491 9.28589Z" fill="#0FAEF4"/>
<path d="M19.2634 20.1337C20.2723 19.1972 21.1176 18.0086 21.7206 16.6492C22.3818 15.16 22.7564 13.3829 22.7564 11.4231C22.7564 10.7438 22.6482 10.0239 22.4911 9.28589H21.8302" fill="#4087ED"/>
<path d="M11.8672 11.1309V11.8157V13.7138H17.7712" fill="#4087ED"/>
</g>
<defs>
<clipPath id="clip0_1_1796">
<rect width="23" height="23" fill="white"/>
</clipPath>
</defs>
</svg>
